<?xml version="1.0" encoding="UTF-8"?><svg id="a" xmlns="http://www.w3.org/2000/svg" viewBox="0 0 54.3 54.69"><defs><style>.b{fill:none;stroke:#000;stroke-miterlimit:10;stroke-width:.5px;}</style></defs><path class="b" d="M51.15,8.55c.5,.5,1.6,.5,2.8,.4v5.3h-5.4s.2-1.6,.1-2c-.1-.4-.4-1.1-.7-1.3-.5-.5-1.2-.6-1.9,0-.8,.8-1,1.9-.3,3.5,0,0,2.5,5,8,2.1l.05,21.79c-5.5-2.8-8,2.1-8,2.1-.8,1.5-.6,2.6,.3,3.5,.6,.6,1.4,.5,1.9,0,.3-.3,.5-.9,.7-1.3,.1-.4-.1-2-.1-2h5.4v5.3c-1.2-.1-2.3-.1-2.8,.4-1,.9-.7,2,.2,2.8,.7,.7,1.8,.7,2.6,.3v5h-5c.4-.8,.3-1.9-.3-2.6-.8-.9-1.9-1.2-2.8-.2-.5,.5-.4,1.6-.4,2.8h-5.3v-5.3s1.6,.2,2,.1c.4-.1,1.1-.4,1.3-.7,.5-.5,.6-1.2,0-1.9-.8-.8-1.9-1-3.5-.3,0,0-5,2.5-2.1,8H16.5c2.9-5.5-2.1-8-2.1-8-1.5-.8-2.6-.6-3.5,.3-.6,.6-.5,1.4,0,1.9,.3,.3,.9,.5,1.3,.6,.4,.1,2-.1,2-.1v5.3h-5.3c.1-1.2,.1-2.3-.4-2.8-.9-1-2-.7-2.8,.2-.7,.8-.7,1.8-.4,2.6H.3v-5c.8,.4,1.9,.3,2.6-.4,.9-.8,1.2-1.8,.2-2.8-.5-.5-1.6-.5-2.8-.4v-5.3H5.6s-.2,1.6-.1,2c.1,.4,.4,1.1,.7,1.3,.5,.5,1.2,.6,1.9,0,.8-.9,1.1-1.9,.3-3.5,0,0-2.5-5-8.1-2.1l-.05-21.79c5.5,2.9,8.1-2.1,8.1-2.1,.8-1.5,.6-2.6-.3-3.5-.6-.6-1.4-.5-1.9,0-.3,.3-.5,.9-.7,1.3-.1,.4,.1,2,.1,2H.25v-5.3c1.2,.1,2.3,.1,2.8-.4,1-.9,.7-2-.2-2.8-.7-.6-1.8-.7-2.6-.3V.25H5.25c-.4,.9-.3,1.9,.4,2.6,.8,.9,1.8,1.2,2.8,.2,.5-.5,.4-1.6,.4-2.8h5.3V5.55s-1.6-.2-2-.1c-.4,.1-1.1,.4-1.3,.7-.5,.5-.6,1.2,0,1.9,.9,.8,1.9,1,3.5,.3,0,0,5-2.5,2.1-8h21.5c-2.9,5.5,2.1,8,2.1,8,1.5,.8,2.6,.6,3.5-.3,.6-.6,.5-1.4,0-1.9-.3-.2-.9-.5-1.3-.6-.4-.1-2,.1-2,.1V.35h5.3c-.1,1.2-.1,2.3,.4,2.8,.9,1,2,.7,2.8-.2,.6-.8,.7-1.8,.3-2.6h5V5.35c-.9-.4-1.9-.3-2.6,.3-1,.9-1.3,2-.3,2.9Z"/></svg>